<svg xmlns="http://www.w3.org/2000/svg" viewBox="0 0 41.62 36.38">
  <path id="Big_Truck" data-name="Big Truck" class="cls-1" d="M1208.32,1046.2l-2.56-7.8,2.48-.81,2.55,7.8Zm7.84,0-2.55-7.8,2.47-.81,2.56,7.8Zm-6.56,23a7.8,7.8,0,1,1,7.8-7.8A7.81,7.81,0,0,1,1209.6,1069.2Zm0-13a5.2,5.2,0,1,0,5.2,5.2A5.2,5.2,0,0,0,1209.6,1056.2Zm23.4,13a7.8,7.8,0,1,1,7.8-7.8A7.81,7.81,0,0,1,1233,1069.2Zm0-13a5.2,5.2,0,1,0,5.2,5.2A5.2,5.2,0,0,0,1233,1056.2Zm-7.8-2.37-26-4.33v-16.7h41.6v2.6h-39v11.9l20.8,3.46V1038h2.6v15.83Zm15.6-.23h-2.6v-6.29l-2.24-6.71h-5.56v7.8h5.2v2.6h-7.8v-13h10.04l2.96,8.89v6.71Z" transform="translate(-1199.19 -1032.81)"/>
</svg>