<svg viewBox="0 0 38.38 38.38">
  <path fill="#99286b" id="CD" class="cls-1" d="M1020,1290.2a19.2,19.2,0,1,1,19.2-19.2A19.218,19.218,0,0,1,1020,1290.2Zm0-36a16.8,16.8,0,1,0,16.8,16.8A16.824,16.824,0,0,0,1020,1254.2Zm0,21.6a4.8,4.8,0,1,1,4.8-4.8A4.8,4.8,0,0,1,1020,1275.8Zm0-7.2a2.4,2.4,0,1,0,2.4,2.4A2.407,2.407,0,0,0,1020,1268.6Zm1.2,0h-2.4v-12h2.4v12Zm0,16.8h-2.4v-12h2.4v12Zm1.35-15.25-1.7-1.7,8.48-8.48,1.7,1.7Zm-11.88,11.88-1.7-1.7,8.48-8.48,1.7,1.7Z" transform="translate(-1000.81 -1251.81)"/>
</svg>
