<svg xmlns="http://www.w3.org/2000/svg" viewBox="0 0 21.313 37.57">
  <path id="Compass_tool" data-name="Compass tool" class="cls-1" d="M818.794,1051.06a6,6,0,1,1,6-6A6.006,6.006,0,0,1,818.794,1051.06Zm0-9.6a3.6,3.6,0,1,0,3.6,3.6A3.6,3.6,0,0,0,818.794,1041.46Zm0.333,20.56a13.123,13.123,0,0,1-6.788-1.89l1.238-2.06a10.809,10.809,0,0,0,14.825-3.68l2.056,1.24A13.21,13.21,0,0,1,819.127,1062.02Zm0.867-25.36h-2.363v-4.8h2.363v4.8Zm-8.523,32.73-2.3-.67,4.875-16.8,2.3,0.67Zm14.571,0-4.875-16.8,2.3-.67,4.875,16.8Z" transform="translate(-809.156 -1031.84)"/>
</svg>
