<svg xmlns="http://www.w3.org/2000/svg" viewBox="0 0 38.376 38.38">
  <path id="Pulse" class="cls-1" d="M620,1069m16.52-18.41-1.84-1.54a9.252,9.252,0,0,0,2.12-5.85,9.018,9.018,0,0,0-15.883-5.83L620,1038.46l-0.918-1.09a9.017,9.017,0,0,0-15.882,5.83,9.247,9.247,0,0,0,2.121,5.85l-1.842,1.54a11.549,11.549,0,0,1-2.679-7.39,11.42,11.42,0,0,1,19.2-8.34,11.42,11.42,0,0,1,19.2,8.34A11.544,11.544,0,0,1,636.52,1050.59ZM620,1069m-1.007-8.9-3.985-8.63-1.439,3.13H600.8v-2.4h11.231l2.97-6.47,3.709,8.03,4.847-13.57,4.432,12.01H639.2v2.4H626.315l-2.721-7.38Zm2.765,10.1h-3.516l-9.959-11.81,1.834-1.54,9.241,10.95h1.284l9.24-10.95,1.835,1.54Z" transform="translate(-600.812 -1031.81)"/>
</svg>
