<svg xmlns="http://www.w3.org/2000/svg" width="44" height="47" viewBox="0 0 44 47">
  <path id="Forma_1" data-name="Forma 1" class="cls-1" d="M589.974,1300.49V1297H549.042s-0.048,32.69-.048,43.51c0,1.64,1.544,3.49,4.162,3.49h39.849v-43.51h-3.031Zm-2.6-.88v8.1H551.418v-8.1h35.956Zm-35.956,9.99h35.956v28.3H551.418v-28.3Zm39,31.79H553.156a1.526,1.526,0,0,1-1.461-.88h38.278V1303.1h0.44C590.414,1305.47,590.414,1339.02,590.414,1341.39Zm-19.442-29.46h13.076v2.61H570.972v-2.61Zm0,5.3h13.076v2.62H570.972v-2.62Zm0,5.31h13.076v2.62H570.972v-2.62Zm0,5.02h13.076v2.62H570.972v-2.62Zm0,5.3h13.076v2.62H570.972v-2.62Zm-17.135-20.93h13.368v13.23H553.837v-13.23Zm8.24-10.62h15.469v4.66H562.077v-4.66Zm-8.388,26.53h13.766v2.62H553.689v-2.62Zm0,5.31h13.766v2.61H553.689v-2.61Z" transform="translate(-549 -1297)"/>
</svg>
