<svg xmlns="http://www.w3.org/2000/svg" width="44" height="44.97" viewBox="0 0 44 44.97">
  <path id="Forma_1" data-name="Forma 1" class="cls-1" d="M291.227,1305.13l-19.478-5.99a2.556,2.556,0,0,0-1.5,0l-19.478,5.99a2.481,2.481,0,0,0-1.766,2.37c0,26.52,13.606,32.86,20.917,36.27a2.532,2.532,0,0,0,2.152,0c7.311-3.41,20.918-9.75,20.918-36.27A2.476,2.476,0,0,0,291.227,1305.13Zm-11.176,1.76,2.7,0.83v21.61a21.9,21.9,0,0,1-2.7,3.39v-25.83Zm-9.057,31.89a0.563,0.563,0,0,0-.123-0.06v-34.58l0.123-.04,3.022,0.93v32.22C272.983,1337.82,271.962,1338.32,270.994,1338.78Zm14.771-15.77v-14.36l2.148,0.66A46.6,46.6,0,0,1,285.765,1323.01Z" transform="translate(-249 -1299.03)"/>
</svg>
