<svg xmlns="http://www.w3.org/2000/svg" viewBox="0 0 37.68 37.68">
  <path id="Syringe" class="cls-1" d="M1202.85,1288.85l-1.7-1.7,2.95-2.94,1.69,1.69Zm26.41-26.41-1.7-1.7,5.8-5.8,1.69,1.7Zm7.89-3.59-6-6,1.7-1.7,6,6Zm-20.46,24.64-1.7-1.7,13.29-13.28-6.79-6.79L1208.21,1275l-1.7-1.69,14.98-14.98,10.18,10.18Zm-5.62-7.37-1.99-1.99,1.69-1.7,1.99,1.99Zm3.6-3.6-1.99-1.99,1.69-1.7,1.99,1.99Zm3.6-3.6-1.99-1.99,1.69-1.7,1.99,1.99Zm-6.67,16.68a7.2,7.2,0,0,1-5.09-12.29l1.7,1.69a4.8,4.8,0,1,0,6.78,6.79l1.7,1.7A7.2,7.2,0,0,1,1211.6,1285.6Z" transform="translate(-1201.16 -1251.16)"/>
</svg>