<svg xmlns="http://www.w3.org/2000/svg" viewBox="0 0 38.407 31.21">
  <path id="Truck" class="cls-1" d="M624.778,1282.42h-24v-24h24v24Zm-21.6-2.4h19.2v-19.2h-19.2v19.2Zm36,2.4h-12v-2.4h9.6v-8.11l-3.142-6.29h-4.058v7.2h4.8v2.4h-7.2v-12h7.942l4.058,8.12v11.08Zm-19.2-7.2h-14.4v-2.4h14.4v2.4Zm13.2,14.4a4.8,4.8,0,0,1-4.8-4.8h2.4a2.4,2.4,0,1,0,4.8,0h2.4A4.8,4.8,0,0,1,633.178,1289.62Zm-22.8,0a4.8,4.8,0,0,1-4.8-4.8h2.4a2.4,2.4,0,1,0,4.8,0h2.4A4.8,4.8,0,0,1,610.378,1289.62Z" transform="translate(-600.781 -1258.41)"/>
</svg>