<svg xmlns="http://www.w3.org/2000/svg" width="51" height="42" viewBox="0 0 51 42">
  <path id="Forma_1" data-name="Forma 1" class="cls-1" d="M1192.32,1304.1a3.89,3.89,0,0,0-3.68,4.07,4.145,4.145,0,0,0,1.74,3.44c-2.21,3.37-5.34,7.29-8.56,8.42-4.24,1.49-8.19-7.68-10.14-13.14a4.037,4.037,0,0,0,2.49-3.83,3.693,3.693,0,1,0-7.35,0,4.052,4.052,0,0,0,2.49,3.83c-1.94,5.46-5.89,14.63-10.13,13.14-3.22-1.13-6.35-5.05-8.56-8.42a4.171,4.171,0,0,0,1.74-3.44,3.7,3.7,0,1,0-3.68,4.06c0.04,0,.07-0.01.1-0.01l4.97,23.39h33.49l4.98-23.39c0.03,0,.07.01,0.11,0.01a4.086,4.086,0,0,0-.01-8.13h0Zm-38.4,32.34h33.16V1341h-33.16v-4.56Z" transform="translate(-1145 -1299)"/>
</svg>
