<svg xmlns="http://www.w3.org/2000/svg" width="54.25" height="51.22" viewBox="0 0 54.25 51.22">
  <path id="Forma_1" data-name="Forma 1" class="cls-1" d="M874.837,1294a24.079,24.079,0,0,0-19.774,10.39,12,12,0,0,1,2.642,2.47,20.612,20.612,0,0,1,14.651-9.13l2.48,4.24,2.481-4.24a20.752,20.752,0,0,1,17.982,18.15l-4.2,2.5,4.2,2.5a20.814,20.814,0,0,1-9.451,15.05,6.446,6.446,0,0,1,.541,2.3,6.178,6.178,0,0,1-.154,1.64A24.415,24.415,0,0,0,874.837,1294ZM881,1334.15c-5.57-4.52-7.128-2.3-9.655.25-1.765,1.78-6.23-1.93-10.086-5.82s-7.541-8.4-5.776-10.18c2.527-2.55,4.727-4.12.249-9.74s-7.46-1.31-9.908,1.16c-2.827,2.85-.149,13.48,10.257,23.98s20.938,13.2,23.763,10.35C882.3,1341.68,886.573,1338.67,881,1334.15Zm-16.965-11.96c0-4.99,5.8-5.88,5.8-7.83a1.325,1.325,0,0,0-1.445-1.34,2.582,2.582,0,0,0-1.988,1.43l-2.438-1.64a5.176,5.176,0,0,1,4.727-2.92c2.194,0,4.576,1.27,4.576,4.15,0,4.22-5.4,5.03-5.5,6.77h5.7v2.84h-9.285A8.324,8.324,0,0,1,864.038,1322.19Zm10.807-3.82,5.178-8.25h4.014v7.51h1.594v2.75h-1.594v3.27h-3.246v-3.27h-5.946v-2.01h0Zm5.946-.74v-3.02a12.267,12.267,0,0,1,.113-1.52h-0.038a7.3,7.3,0,0,1-.656,1.4l-2.026,3.11v0.03h2.607Z" transform="translate(-844.75 -1294)"/>
</svg>
